<svg width="57" height="48" fill="none" xmlns="http://www.w3.org/2000/svg"><g clip-path="url(#clip0_403_308)"><path d="M11.666 0C8.462 0 6.09 3.008 6.196 6.27c.103 3.135-.03 7.194-.982 10.505-.956 3.32-2.572 5.423-5.212 5.693v3.048c2.64.27 4.256 2.373 5.212 5.694.952 3.31 1.085 7.37.983 10.503-.106 3.262 2.265 6.271 5.47 6.271h32.831c3.205 0 5.575-3.008 5.469-6.27-.102-3.135.03-7.194.983-10.504.956-3.32 2.568-5.424 5.208-5.694v-3.048c-2.64-.27-4.252-2.373-5.208-5.693-.953-3.31-1.085-7.37-.983-10.504C50.073 3.009 47.703 0 44.498 0H11.666zm26.408 29.537c0 4.492-3.124 7.217-8.308 7.217h-8.824a.92.92 0 01-.673-.3 1.06 1.06 0 01-.279-.721V12.25a1.076 1.076 0 01.279-.722.95.95 0 01.309-.221.895.895 0 01.364-.078h8.774c4.322 0 7.16 2.512 7.16 6.368 0 2.707-1.91 5.13-4.34 5.554v.141c3.31.39 5.538 2.848 5.538 6.244zm-9.27-15.07h-5.031v7.623h4.238c3.275 0 5.082-1.415 5.082-3.944 0-2.37-1.554-3.68-4.289-3.68zm-5.031 10.648v8.401h5.216c3.41 0 5.218-1.468 5.218-4.227 0-2.76-1.857-4.174-5.437-4.174h-4.997z" fill="#7E13F8"/></g><defs><clipPath id="clip0_403_308"><path fill="#fff" d="M0 0h56.16v48H0z"/></clipPath></defs></svg>