<svg width="40" height="28" fill="none" xmlns="http://www.w3.org/2000/svg"><path d="M12.413 18.27l1.17 3.793c.262.86.371 1.462.328 1.805.639-1.713 1.086-3.579 1.34-5.598h1.405c-.604 3.288-1.401 5.677-2.39 7.168-.772 1.148-1.616 1.722-2.536 1.722-.245 0-.547-.074-.906-.22v-.793c.175.025.38.04.617.04.43 0 .775-.12 1.038-.357.315-.29.473-.614.473-.974 0-.247-.123-.751-.368-1.515l-1.629-5.071h1.458zm-8.946-2.331l2.14 6.532h.014l2.154-6.532h1.76c.386 3.24.613 6.203.683 8.89H8.734a83.037 83.037 0 00-.433-7.085h-.013l-2.26 7.085h-1.13l-2.245-7.085h-.014a116.287 116.287 0 00-.315 7.085H.971c.087-3.16.306-6.124.656-8.89h1.84z" fill="#00758F"/><path d="M27.453 15.807c2.303 0 3.454 1.471 3.454 4.413 0 1.598-.346 2.805-1.038 3.621a3.047 3.047 0 01-.408.397l1.63.806h-.002l-.578 1-2.123-1.24a4.076 4.076 0 01-1.16.157c-1.131 0-1.976-.33-2.535-.988-.613-.728-.919-1.875-.919-3.437 0-1.59.346-2.793 1.038-3.61.63-.746 1.51-1.12 2.64-1.12zm-7.053.013c.823 0 1.571.22 2.245.659l-.342.763a4.34 4.34 0 00-1.707-.368c-.455 0-.805.11-1.05.33-.245.218-.398.5-.398.842 0 .527.376.983 1.068 1.37.227.123.453.249.679.376l.052.029.025.014.052.03.026.014.052.029c.524.296 1.017.578 1.017.578.693.491 1.038 1.016 1.038 1.88 0 .753-.276 1.372-.827 1.857-.55.482-1.291.723-2.219.723-.867 0-1.708-.278-2.522-.83l.381-.764c.7.352 1.335.527 1.904.527.534 0 .952-.12 1.255-.355.301-.237.482-.568.482-.987 0-.528-.367-.98-1.04-1.358a54.245 54.245 0 01-.631-.352l-.052-.03-.284-.16-.05-.03c-.455-.258-.849-.484-.849-.484-.673-.493-1.01-1.021-1.01-1.892 0-.72.251-1.303.754-1.746.504-.443 1.154-.665 1.95-.665zm13.214.119v7.797h2.797v1.093h-4.216v-8.89h1.419zm4.352 7.8v.185h-.308v.905h-.235v-.905h-.32v-.185h.863zm.568 0l.295.743.271-.743h.334v1.09h-.222v-.83l-.309.83h-.16l-.309-.83h-.012v.83h-.21v-1.09h.322zM27.308 16.9c-1.358 0-2.037 1.12-2.037 3.36 0 1.281.18 2.211.54 2.791.332.536.853.804 1.563.804 1.357 0 2.036-1.129 2.036-3.385 0-1.265-.18-2.187-.539-2.767-.333-.535-.854-.803-1.563-.803z" fill="#F29111"/><path d="M23.75 1.52c.45-1.107 2.025-.269 2.636.118.15.096.321.3.493.376.268.01.535.032.804.043.503.118.974.215 1.37.44 1.843 1.086 3.043 2.191 4.147 4.018.236.387.354.806.546 1.224.268.624.568 1.28.879 1.87.139.28.246.59.44.827.075.108.289.14.416.204.354.183.783.322 1.115.537.622.387 1.222.849 1.768 1.322.204.182.342.44.536.633v.097c-.172.053-.343.107-.515.15-.375.097-.707.075-1.07.171-.226.066-.505.152-.74.174l.021.022c.14.396.89.718 1.233.955.416.3.803.666 1.114 1.085.107.107.214.204.321.31.075.109.096.248.171.345v.032a.525.525 0 01-.2-.145l-.035-.035a.847.847 0 00-.107-.099c-.237-.161-.471-.354-.708-.505-.407-.258-.878-.407-1.296-.666a9.908 9.908 0 01-.686-.494c-.204-.15-.428-.44-.556-.655-.076-.119-.086-.258-.172-.344.015-.143.146-.186.279-.221l.03-.008a1.09 1.09 0 00.13-.04c.557-.236 1.221-.322 2.079-.3-.033-.216-.569-.484-.74-.613a18.6 18.6 0 00-1.07-.73c-.194-.119-.526-.205-.74-.301-.29-.119-.932-.237-1.093-.462-.272-.355-.468-.778-.658-1.206l-.051-.117a50.467 50.467 0 00-.052-.117c-.225-.515-.504-1.052-.729-1.58-.117-.257-.171-.482-.3-.73a9.523 9.523 0 00-3.342-3.673 6.844 6.844 0 00-1.543-.741c-.321-.097-.707-.044-1.05-.118H26.6c-.193-.054-.354-.258-.504-.366-.331-.225-.663-.376-1.06-.537-.14-.065-.536-.215-.675-.097-.085.022-.129.054-.15.14-.085.129-.01.322.043.44.16.344.386.548.59.838.181.258.406.548.535.828.278.601.407 1.267.665 1.869.095.226.246.483.385.687.117.162.332.279.396.484.13.215-.193.924-.268 1.149-.279.88-.225 2.106.097 2.87l.017.04.017.04c.117.28.243.581.555.66.022-.022 0-.01.043-.022.075-.591.096-1.16.3-1.623.118-.289.353-.493.514-.73.107.065.107.259.171.387.14.333.29.698.462 1.031.352.688.75 1.354 1.199 1.956.15.214.364.45.557.644.086.075.182.119.247.215h.02v.032c-.32-.118-.524-.45-.78-.645-.483-.365-1.061-.913-1.394-1.438-.139-.302-.29-.592-.44-.892v-.022c-.064.086-.042.171-.074.301-.14.537-.032 1.15-.514 1.342-.547.226-.954-.365-1.125-.633-.547-.892-.697-2.395-.311-3.61.085-.268.097-.59.247-.805-.033-.194-.182-.247-.269-.366a5.066 5.066 0 01-.395-.665c-.226-.44-.386-.967-.558-1.44-.075-.193-.096-.387-.172-.57-.128-.278-.363-.558-.546-.805-.246-.354-.964-1.042-.675-1.74zm3.514 2.104a.708.708 0 00.1.079l.042.03a.48.48 0 01.148.138c.054.076.064.15.129.226 0 .258-.075.43-.226.537l-.021.022c-.086-.172-.161-.344-.247-.516-.107-.15-.257-.269-.343-.44h-.021v-.022a1.71 1.71 0 01.44-.054z" fill="#00758F"/></svg>