<svg width="32" height="32" fill="none" xmlns="http://www.w3.org/2000/svg"><g clip-path="url(#clip0_102_163)"><path d="M17.333 10.667c2.804 0 4 1.196 4 4H24C24 10.367 21.633 8 17.333 8v2.667zm4.563 7.257a1.335 1.335 0 00-1.855.057l-3.19 3.282c-.768-.147-2.312-.628-3.902-2.214-1.589-1.59-2.07-3.138-2.213-3.901l3.279-3.192a1.334 1.334 0 00.057-1.855L9.145 4.684a1.333 1.333 0 00-1.854-.116L4.397 7.049c-.23.232-.368.54-.386.866-.02.333-.402 8.229 5.721 14.354C15.073 27.61 21.764 28 23.607 28c.269 0 .434-.008.478-.01.326-.019.634-.157.864-.389l2.48-2.894a1.333 1.333 0 00-.114-1.855l-5.419-4.928z" fill="navy"/></g><defs><clipPath id="clip0_102_163"><path fill="#fff" d="M0 0h32v32H0z"/></clipPath></defs></svg>