<svg width="48" height="48" fill="none" xmlns="http://www.w3.org/2000/svg"><g clip-path="url(#clip0_404_314)" fill="#61DBFB"><path d="M48 23.378c0-3.18-3.982-6.194-10.088-8.062 1.41-6.222.784-11.174-1.976-12.76a4.29 4.29 0 00-2.192-.546v2.18c.45 0 .812.09 1.116.256 1.33.764 1.908 3.668 1.458 7.406a29.98 29.98 0 01-.5 2.876 47.424 47.424 0 00-6.212-1.066 47.722 47.722 0 00-4.07-4.892c3.19-2.964 6.184-4.588 8.22-4.588V2c-2.692 0-6.214 1.918-9.776 5.244-3.56-3.304-7.084-5.204-9.774-5.204v2.18c2.026 0 5.03 1.616 8.22 4.56a46.457 46.457 0 00-4.042 4.882 45.686 45.686 0 00-6.222 1.076 29.37 29.37 0 01-.51-2.836c-.46-3.74.108-6.644 1.43-7.416.292-.176.674-.256 1.124-.256V2.05c-.82 0-1.566.176-2.21.546-2.75 1.586-3.366 6.526-1.948 12.73C3.962 17.206 0 20.208 0 23.378c0 3.18 3.982 6.194 10.088 8.06-1.41 6.224-.784 11.176 1.976 12.76.636.372 1.38.548 2.2.548 2.692 0 6.214-1.918 9.776-5.244 3.56 3.306 7.082 5.204 9.774 5.204a4.36 4.36 0 002.21-.548c2.75-1.584 3.366-6.524 1.948-12.728C44.038 29.562 48 26.548 48 23.378zm-12.74-6.526a44.036 44.036 0 01-1.32 3.864 52.89 52.89 0 00-2.69-4.638c1.39.206 2.73.46 4.012.774h-.002zm-4.48 10.42a51.875 51.875 0 01-2.358 3.738 50.907 50.907 0 01-8.824.01 50.917 50.917 0 01-4.402-7.612 52.127 52.127 0 014.384-7.64 50.904 50.904 0 018.822-.012 53.29 53.29 0 012.368 3.72c.744 1.28 1.42 2.58 2.036 3.892a54.802 54.802 0 01-2.026 3.904zM33.94 26c.528 1.31.98 2.622 1.35 3.894a43.07 43.07 0 01-4.03.782A54.1 54.1 0 0033.94 26zm-9.92 10.44c-.91-.94-1.82-1.986-2.72-3.132.88.04 1.78.07 2.69.07.92 0 1.83-.02 2.72-.07a38.036 38.036 0 01-2.69 3.132zm-7.28-5.764a44.228 44.228 0 01-4.012-.772 44.165 44.165 0 011.32-3.864c.402.78.824 1.564 1.284 2.348.46.782.928 1.546 1.408 2.288zm7.23-20.36c.91.94 1.82 1.986 2.72 3.132-.88-.04-1.78-.07-2.69-.07-.92 0-1.83.02-2.72.07a38.036 38.036 0 012.69-3.132zm-7.24 5.764a54.032 54.032 0 00-2.68 4.666 41.914 41.914 0 01-1.35-3.894 46.616 46.616 0 014.03-.772zM7.876 28.328c-3.464-1.476-5.704-3.414-5.704-4.95s2.24-3.484 5.704-4.95c.84-.362 1.76-.686 2.71-.988a47.476 47.476 0 002.2 5.958 46.327 46.327 0 00-2.17 5.928c-.93-.288-1.844-.62-2.74-.998zm5.264 13.98c-1.33-.76-1.908-3.668-1.458-7.404.108-.92.284-1.89.5-2.878 1.916.47 4.01.832 6.212 1.068a47.735 47.735 0 004.07 4.892c-3.19 2.964-6.184 4.588-8.22 4.588a2.334 2.334 0 01-1.104-.264v-.002zm23.208-7.454c.46 3.738-.108 6.644-1.43 7.416-.292.176-.674.254-1.124.254-2.026 0-5.03-1.614-8.22-4.56a46.017 46.017 0 004.042-4.88 45.686 45.686 0 006.222-1.076c.226.988.4 1.936.51 2.846zm3.766-6.526c-.84.362-1.76.686-2.71.988a46.976 46.976 0 00-2.2-5.958c.9-2.034 1.622-4.02 2.17-5.928.932.289 1.85.622 2.75.998 3.464 1.476 5.704 3.414 5.704 4.95-.01 1.536-2.25 3.484-5.714 4.95z"/><path d="M23.99 27.85a4.472 4.472 0 100-8.944 4.472 4.472 0 000 8.944z"/></g><defs><clipPath id="clip0_404_314"><path fill="#fff" d="M0 0h48v48H0z"/></clipPath></defs></svg>