<svg width="64" height="64" viewBox="0 0 32 32" fill="none" xmlns="http://www.w3.org/2000/svg"><path d="M26.11 17.572a5.799 5.799 0 00-2.537.588 5.347 5.347 0 01-.568-1.314 3.533 3.533 0 01-.051-1.1 9.82 9.82 0 01.332-1.192c-.005-.051-.061-.292-.624-.3-.563-.008-1.048.107-1.1.256-.098.272-.176.55-.235.834a19.69 19.69 0 01-1.713 3.294 3.187 3.187 0 01-.44-2.066 9.82 9.82 0 01.332-1.192c-.005-.051-.061-.292-.624-.3-.563-.008-1.048.107-1.1.256-.052.149-.118.5-.235.834-.117.334-1.483 3.386-1.841 4.173a27.434 27.434 0 01-.475.987l-.153.292v.005c-.077.138-.159.266-.2.266a1.71 1.71 0 01.01-.869c.2-1.059.69-2.705.685-2.762 0-.031.092-.317-.317-.465a.508.508 0 00-.578.1c-.036 0-.061.087-.061.087s.445-1.851-.849-1.851a3.854 3.854 0 00-2.475 1.683c-.348.189-1.089.593-1.882 1.028-.3.169-.614.338-.905.5-.02-.02-.041-.046-.061-.066C6.87 17.6 3.975 16.416 4.1 14.171c.046-.818.327-2.966 5.559-5.575 4.306-2.122 7.733-1.534 8.326-.23.849 1.862-1.836 5.319-6.285 5.82a3.351 3.351 0 01-2.813-.711c-.235-.256-.271-.271-.358-.22-.143.077-.051.307 0 .44a2.627 2.627 0 001.606 1.263 8.55 8.55 0 005.217-.517c2.7-1.043 4.8-3.943 4.184-6.372-.619-2.465-4.71-3.278-8.582-1.9a19.5 19.5 0 00-6.595 3.783c-2.133 1.995-2.47 3.728-2.332 4.455.5 2.578 4.051 4.255 5.472 5.5a8.465 8.465 0 01-.194.107c-.711.353-3.421 1.77-4.1 3.268-.767 1.7.123 2.915.711 3.079a4.374 4.374 0 004.71-1.908 4.725 4.725 0 00.423-4.353.107.107 0 00-.02-.031l.557-.327c.338-.2.681-.393 1.028-.578-.208.6-.33 1.227-.363 1.862a3.89 3.89 0 00.834 2.7.92.92 0 00.675.22c.6 0 .875-.5 1.176-1.094.368-.726.7-1.57.7-1.57s-.414 2.281.711 2.281c.409 0 .823-.532 1.008-.8v.005l.031-.051.066-.107v-.01c.164-.286.532-.936 1.079-2.015.706-1.391 1.386-3.13 1.386-3.13.066.382.156.76.271 1.13.165.449.36.886.583 1.309-.164.23-.266.358-.266.358l.005.005c-.133.174-.276.363-.435.547a16.27 16.27 0 00-1.314 1.647.447.447 0 00.123.6c.21.11.45.15.685.113.353-.02.701-.1 1.028-.235a3.45 3.45 0 00.885-.465 1.98 1.98 0 00.849-1.744 3.52 3.52 0 00-.322-1.233 23.426 23.426 0 001.682-2.864c.066.382.156.76.271 1.13.136.388.303.764.5 1.125a4.86 4.86 0 00-1.497 1.922c-.322.931-.072 1.35.4 1.447.258.018.517-.035.747-.153a3.38 3.38 0 00.946-.486 2.127 2.127 0 001.043-1.729 3.269 3.269 0 00-.235-1.023 5.356 5.356 0 012.716-.312c2.434.286 2.915 1.805 2.823 2.445a1.618 1.618 0 01-.772 1.094c-.169.107-.225.143-.21.22.02.113.1.107.245.087A1.9 1.9 0 0030 20.7c.077-1.5-1.355-3.145-3.887-3.13l-.003.002zM7.33 23.9c-.808.88-1.933 1.212-2.419.931-.522-.3-.317-1.6.675-2.532a12.881 12.881 0 011.9-1.417c.118-.072.292-.174.5-.3l.056-.031.123-.077A3.493 3.493 0 017.33 23.9zm5.881-4c-.281.685-.869 2.44-1.227 2.342-.307-.082-.5-1.412-.061-2.726a6.19 6.19 0 01.956-1.754c.44-.491.926-.655 1.043-.455a9.061 9.061 0 01-.711 2.593zm4.853 2.322c-.118.061-.23.1-.281.072-.036-.02.051-.1.051-.1s.609-.655.849-.951c.138-.174.3-.378.476-.609v.066c0 .782-.757 1.309-1.094 1.524l-.001-.002zm3.744-.854c-.087-.061-.072-.266.22-.905.203-.41.487-.776.834-1.074.053.151.081.31.082.471a1.547 1.547 0 01-1.135 1.509l-.001-.001z" fill="#CD6799"/></svg>