<svg width="45" height="64" viewBox="0 0 29 32" fill="none" xmlns="http://www.w3.org/2000/svg"><path d="M14.125.005l14.124 7.99v15.984l-14.124 7.99-14.124-7.99V7.995L14.125.005z" fill="#fff"/><path d="M25.728 23.425L14.594 29.73v-4.904l6.94-3.821 4.194 2.42zm.762-.688V9.562l-4.072 2.35v8.475l4.072 2.35zm-24.01.688l11.133 6.3V24.82l-6.94-3.816-4.194 2.42zm-.763-.688V9.562l4.072 2.35v8.475l-4.072 2.35zM2.192 8.71l11.421-6.46v4.744l-7.318 4.024-.058.032-4.045-2.34zm23.819 0L14.594 2.25v4.744l7.313 4.029.058.032 4.046-2.345z" fill="#8ED6FB"/><path d="M13.613 23.707L6.77 19.94v-7.457l6.843 3.95v7.275zm.981 0l6.844-3.763v-7.461l-6.844 3.949v7.275zM7.228 11.62l6.876-3.779 6.87 3.78-6.87 3.965-6.876-3.966z" fill="#1C78C0"/></svg>