<svg width="29" height="32" viewBox="0 0 29 32" fill="none" xmlns="http://www.w3.org/2000/svg">
<path d="M14.125 0.00531006L28.2491 7.99483V23.979L14.125 31.9686L0.000862122 23.979V7.99483L14.125 0.00531006Z" fill="white"/>
<path d="M25.7281 23.4247L14.5941 29.7299V24.8265L21.5336 21.005L25.7281 23.4247ZM26.4902 22.7372V9.5618L22.4183 11.9121V20.3866L26.4902 22.7372ZM2.47921 23.4246L13.6133 29.7247V24.8212L6.67385 21.005L2.47921 23.4247V23.4246ZM1.71706 22.7372V9.5618L5.78911 11.9121V20.3866L1.71706 22.7372ZM2.19154 8.70905L13.6133 2.24913V6.99286L6.29548 11.0168L6.23678 11.0488L2.19154 8.70894V8.70905ZM26.0106 8.70905L14.5941 2.24902V6.99275L21.9066 11.022L21.9652 11.054L26.0106 8.70883V8.70905Z" fill="#8ED6FB"/>
<path d="M13.6133 23.7072L6.76974 19.939V12.4825L13.6133 16.432V23.7072ZM14.5941 23.7072L21.4377 19.9444V12.4825L14.5941 16.432V23.7072ZM7.22812 11.6191L14.1037 7.84021L20.9738 11.6191L14.1037 15.5845L7.22812 11.6191Z" fill="#1C78C0"/>
</svg>
